<svg xmlns="http://www.w3.org/2000/svg" xml:space="preserve" width="800" height="258" data-version="2">
    <g transform="matrix(1.0139 0 0 1.0133 323.805 135.052)">
        <linearGradient id="a" x1="-.192" x2="5.978" y1="0" y2="0" gradientUnits="objectBoundingBox">
            <stop offset="0%" stop-color="#1874C8"/>
            <stop offset="100%" stop-color="#03BFAB"/>
        </linearGradient>
        <path fill="url(#a)" d="M287.22 399.14v-20.86l46.3-49.41h24.34v2.19Zm-17.93 32.75V328.87h18.67v103.02Zm69.36 0-38.8-53.43 13.54-13.18 46.67 64.42v2.19Z" paint-order="stroke" transform="translate(-314.675 -380.38)"/>
    </g>
    <rect width="90.77" height="103.02" x="-45.385" y="-51.51" fill="none" rx="0" ry="0" transform="matrix(1.0139 0 0 1.0133 324.312 135.56)"/>
    <g transform="matrix(1.0139 0 0 1.0133 410.174 149.978)">
        <linearGradient id="b" x1="-1.637" x2="6.033" y1="0" y2="0" gradientUnits="objectBoundingBox">
            <stop offset="0%" stop-color="#1874C8"/>
            <stop offset="100%" stop-color="#03BFAB"/>
        </linearGradient>
        <path fill="url(#b)" d="M392.08 433.72q-10.24 0-16.65-4.85-6.4-4.84-9.24-13.54-2.84-8.69-2.84-20.04 0-11.52 2.93-20.31 2.93-8.78 9.24-13.63 6.32-4.85 16.56-4.85 6.59 0 11.07 1.83 4.49 1.83 7.32 4.39 2.84 2.56 4.31 5.03 1.46 2.47 2.01 3.94h.36v-15.01h19.22v75.21h-16.1l-3.12-12.26h-.36q-.37 1.28-2.01 3.57-1.65 2.29-4.49 4.76-2.83 2.47-7.32 4.12-4.48 1.64-10.89 1.64m7.69-15.73q6.77 0 10.61-2.93 3.85-2.93 5.31-8.15 1.46-5.21 1.46-11.43 0-6.77-1.55-11.81-1.56-5.03-5.31-7.87-3.75-2.83-10.52-2.83-7.14 0-11.07 3.11-3.94 3.11-5.49 8.14-1.56 5.04-1.56 11.26t1.56 11.34q1.55 5.13 5.49 8.15 3.93 3.02 11.07 3.02" paint-order="stroke" transform="translate(-399.86 -395.11)"/>
    </g>
    <rect width="73.02" height="77.22" x="-36.51" y="-38.61" fill="none" rx="0" ry="0" transform="matrix(1.0139 0 0 1.0133 410.681 150.485)"/>
    <g transform="matrix(1.0139 0 0 1.0133 482.537 149.142)">
        <linearGradient id="c" x1="-4.008" x2="7.284" y1="0" y2="0" gradientUnits="objectBoundingBox">
            <stop offset="0%" stop-color="#1874C8"/>
            <stop offset="100%" stop-color="#03BFAB"/>
        </linearGradient>
        <path fill="url(#c)" d="M446.43 431.89v-75.21h17.39l1.46 21.96-.18 16.11v37.14Zm18.67-32.39-.55-16.65q0-3.84 1.47-8.33 1.46-4.48 4.84-8.51 3.39-4.02 8.88-6.68 5.49-2.65 13.54-2.65h2.75v20.86h-2.75q-7.87 0-13.36 1.19-5.49 1.19-8.69 3.75-3.2 2.57-4.67 6.78-1.46 4.2-1.46 10.24" paint-order="stroke" transform="translate(-471.23 -394.285)"/>
    </g>
    <rect width="49.6" height="75.21" x="-24.8" y="-37.605" fill="none" rx="0" ry="0" transform="matrix(1.0139 0 0 1.0133 483.043 149.649)"/>
    <g transform="matrix(1.0139 0 0 1.0133 571.689 149.142)">
        <linearGradient id="d" x1="-2.317" x2="2.733" y1="0" y2="0" gradientUnits="objectBoundingBox">
            <stop offset="0%" stop-color="#1874C8"/>
            <stop offset="100%" stop-color="#03BFAB"/>
        </linearGradient>
        <path fill="url(#d)" d="M503.71 431.89v-75.21h17.75l.37 16.29h.37q.18-.73 1.37-3.2 1.19-2.47 3.84-5.49 2.66-3.02 6.86-5.31 4.21-2.29 10.44-2.29 6.03 0 10.06 2.38t6.5 6.04q2.47 3.66 3.57 7.87h.36q.18-.73 1.65-3.3 1.46-2.56 4.21-5.58 2.74-3.02 7.23-5.21 4.48-2.2 10.88-2.2 7.14 0 11.81 3.02 4.66 3.02 7.41 7.69 2.74 4.66 4.12 9.97 1.37 5.31 1.74 10.16.36 4.85.36 7.96v36.41h-18.12v-36.6q0-2.92-.27-6.68-.27-3.75-1.46-7.32-1.19-3.56-3.94-5.85-2.74-2.29-7.68-2.29-6.04 0-9.25 3.39-3.2 3.38-4.39 8.6-1.19 5.21-1.19 10.89v35.86h-18.3v-36.6q0-2.92-.18-6.68-.18-3.75-1.46-7.32-1.29-3.56-4.03-5.85-2.75-2.29-7.69-2.29-5.85 0-9.15 3.39-3.29 3.38-4.48 8.6-1.19 5.21-1.19 10.89v35.86Z" paint-order="stroke" transform="translate(-559.16 -394.285)"/>
    </g>
    <rect width="110.9" height="75.21" x="-55.45" y="-37.605" fill="none" rx="0" ry="0" transform="matrix(1.0139 0 0 1.0133 572.196 149.649)"/>
    <g transform="matrix(1.0139 0 0 1.0133 672.349 149.978)">
        <linearGradient id="e" x1="-5.178" x2="2.491" y1="0" y2="0" gradientUnits="objectBoundingBox">
            <stop offset="0%" stop-color="#1874C8"/>
            <stop offset="100%" stop-color="#03BFAB"/>
        </linearGradient>
        <path fill="url(#e)" d="M650.66 433.72q-10.25 0-16.65-4.85-6.41-4.84-9.24-13.54-2.84-8.69-2.84-20.04 0-11.52 2.93-20.31 2.93-8.78 9.24-13.63 6.31-4.85 16.56-4.85 6.59 0 11.07 1.83 4.49 1.83 7.32 4.39 2.84 2.56 4.3 5.03 1.47 2.47 2.02 3.94h.36v-15.01h19.22v75.21h-16.11l-3.11-12.26h-.36q-.37 1.28-2.02 3.57-1.64 2.29-4.48 4.76-2.84 2.47-7.32 4.12-4.48 1.64-10.89 1.64m7.69-15.73q6.77 0 10.61-2.93 3.85-2.93 5.31-8.15 1.46-5.21 1.46-11.43 0-6.77-1.55-11.81-1.56-5.03-5.31-7.87-3.75-2.83-10.52-2.83-7.14 0-11.07 3.11-3.94 3.11-5.49 8.14-1.56 5.04-1.56 11.26t1.56 11.34q1.55 5.13 5.49 8.15 3.93 3.02 11.07 3.02" paint-order="stroke" transform="translate(-658.44 -395.11)"/>
    </g>
    <rect width="73.02" height="77.22" x="-36.51" y="-38.61" fill="none" rx="0" ry="0" transform="matrix(1.0139 0 0 1.0133 672.856 150.485)"/>
    <g transform="matrix(1.0139 0 0 1.0133 754.916 149.142)">
        <linearGradient id="f" x1="-6.391" x2="1.435" y1="0" y2="0" gradientUnits="objectBoundingBox">
            <stop offset="0%" stop-color="#1874C8"/>
            <stop offset="100%" stop-color="#03BFAB"/>
        </linearGradient>
        <path fill="url(#f)" d="M704.1 431.89v-75.21h15.92l3.11 16.29h.37q.18-.55 1.37-3.02 1.19-2.47 4.02-5.58 2.84-3.11 7.69-5.4 4.85-2.29 12.17-2.29 8.05 0 13.08 2.65 5.04 2.66 7.97 6.96 2.92 4.3 4.11 9.51 1.19 5.22 1.47 10.34.27 5.13.27 9.34v36.41h-18.3v-36.6q0-6.03-1.19-10.98-1.19-4.94-4.57-8.05-3.39-3.11-10.53-3.11-7.32 0-11.16 3.39-3.84 3.38-5.31 8.51-1.46 5.12-1.46 10.98v35.86Z" paint-order="stroke" transform="translate(-739.875 -394.285)"/>
    </g>
    <rect width="71.55" height="75.21" x="-35.775" y="-37.605" fill="none" rx="0" ry="0" transform="matrix(1.0139 0 0 1.0133 755.423 149.649)"/>
    <g transform="matrix(2.8165 0 0 2.8148 117.62 128.999)">
        <linearGradient id="g" x1="0" x2="1" y1="0" y2="0" gradientUnits="objectBoundingBox">
            <stop offset="0%" stop-color="#1973C9"/>
            <stop offset="100%" stop-color="#03BFAB"/>
        </linearGradient>
        <path fill="url(#g)" d="M88.73 54.699 50.5 32.597v-2.27l37.734 21.816a.5.5 0 0 0 .25.067h.02a.498.498 0 0 0 .48-.64l-.004-3.282a.5.5 0 0 0-.25-.434L50.5 25.75v-2.27l37.734 21.816q.119.065.25.066c.131.001.172-.023.25-.066a.5.5 0 0 0 .25-.434V41.44a.5.5 0 0 0-.25-.433L50.5 18.902v-2.266l37.734 21.816q.119.066.25.067c.131 0 .172-.024.25-.067a.5.5 0 0 0 .25-.433v-3.422a.5.5 0 0 0-.25-.434L50.5 12.058v-2.27l37.73 21.817a.5.5 0 0 0 .75-.434l.004-3.422a.5.5 0 0 0-.25-.433L50.25 5.066c-.059-.032-.121-.04-.184-.051-.023 0-.043-.016-.066-.016-.023 0-.043.016-.066.02-.063.008-.125.015-.184.05l-2.96 1.708a.5.5 0 0 0-.25.433l-.005 44.215-1.96 1.133.003-43.637a.5.5 0 0 0-.75-.434l-2.96 1.711a.5.5 0 0 0-.25.434v44.21l-1.962 1.134.004-43.63a.5.5 0 0 0-.75-.433l-2.96 1.711a.5.5 0 0 0-.25.434v44.215l-1.961 1.132V15.772a.496.496 0 0 0-.25-.433.497.497 0 0 0-.5 0l-2.961 1.71a.5.5 0 0 0-.25.434v44.211l-1.961 1.133V19.194a.5.5 0 0 0-.75-.434l-2.961 1.711a.5.5 0 0 0-.25.434V65.12l-1.961 1.133.008-43.641a.5.5 0 0 0-.75-.434l-2.961 1.711a.5.5 0 0 0-.25.434v44.21l-1.961 1.133V26.033a.5.5 0 0 0-.75-.433l-2.961 1.71a.5.5 0 0 0-.25.434v44.5c0 .18.094.344.25.434l2.96 1.71a.5.5 0 0 0 .5.001l38.23-22.102 1.962 1.133-37.734 21.82a.5.5 0 0 0 0 .867l2.96 1.71a.5.5 0 0 0 .5.001l38.23-22.105 1.966 1.136L23.11 78.661a.5.5 0 0 0 0 .868l2.957 1.71a.5.5 0 0 0 .5 0l38.23-22.105 1.964 1.137-37.734 21.816a.5.5 0 0 0 0 .867l2.961 1.711a.5.5 0 0 0 .5 0l38.23-22.105 1.965 1.137-37.734 21.812a.5.5 0 0 0 0 .867l2.96 1.711a.5.5 0 0 0 .5 0l38.23-22.105 1.962 1.133L40.867 88.93a.5.5 0 0 0 0 .867l2.96 1.71a.475.475 0 0 0 .25.067.52.52 0 0 0 .25-.066l38.23-22.105 1.962 1.133-37.73 21.816a.5.5 0 0 0 0 .867l2.96 1.71a.515.515 0 0 0 .25.067.522.522 0 0 0 .25-.066l38.48-22.25a.5.5 0 0 0 .25-.434V68.82a.5.5 0 0 0-.25-.433L50.5 46.286V44.02l37.73 21.812a.5.5 0 0 0 .75-.433l.004-3.422a.5.5 0 0 0-.25-.434L50.5 39.438v-2.265l37.734 21.816q.12.068.25.066a.5.5 0 0 0 .5-.5v-3.426a.51.51 0 0 0-.253-.433z" transform="translate(-50.012 -49.998)"/>
    </g>
</svg>
